C:\Users\r0593348\3dpredictsim\Results\Batchsim_tmt_linear\Pog_s1_tmt_bCst_d02_k1000_ig24_act_GRF.mot
nRows=20
nColumns=19

name C:\Users\r0593348\3dpredictsim\Results\Batchsim_tmt_linear\Pog_s1_tmt_bCst_d02_k1000_ig24_act_GRF.mot
datacolumns 19
datarows 20
range 0.6160658068 0.8501708134
endheader
time 	ground_force_vx	ground_force_vy	ground_force_vz	ground_force_px	ground_force_py	ground_force_pz	1_ground_force_vx	1_ground_force_vy	1_ground_force_vz	1_ground_force_px	1_ground_force_py	1_ground_force_pz	ground_torque_x	ground_torque_y	ground_torque_z	1_ground_torque_x	1_ground_torque_y	1_ground_torque_z
        0.6160658068	      108.1483121518	      437.5737497499	        1.5805654104	        0.4133617480	        0.0000000000	        0.0356797282	      -46.5900037555	       36.2242513416	      -11.1223360553	        0.9633885354	        0.0000000000	       -0.0507894511	        0.0000000000	        0.0000000000	        0.0000000000	        0.0000000000	        0.0000000000	        0.0000000000	
        0.6283871230	       77.6674032524	      341.1842545269	        6.3528944325	        0.4204459285	        0.0000000000	        0.0331118006	     -118.7910323621	      121.1136657157	      -41.3956678477	        0.9716824414	        0.0000000000	       -0.0489125263	        0.0000000000	        0.0000000000	        0.0000000000	        0.0000000000	        0.0000000000	        0.0000000000	
        0.6407084391	       44.2274633410	      233.2937962363	       13.2011747516	        0.4328567475	        0.0000000000	        0.0281345944	      -58.6920599558	      301.5346101641	      -15.7840546287	        0.9772987632	        0.0000000000	       -0.0470948049	        0.0000000000	        0.0000000000	        0.0000000000	        0.0000000000	        0.0000000000	        0.0000000000	
        0.6530297553	       27.6265006414	      177.0051373047	       13.0320415482	        0.4416138082	        0.0000000000	        0.0238990911	      -57.0140408921	      503.6853696922	        4.6353710554	        0.9804110869	        0.0000000000	       -0.0469542636	        0.0000000000	        0.0000000000	        0.0000000000	        0.0000000000	        0.0000000000	        0.0000000000	
        0.6653510714	       25.4643747221	      139.1526790760	       13.8253592516	        0.4419737772	        0.0000000000	        0.0240779224	     -101.3818021166	      712.4800646015	       13.7500065830	        0.9888448492	        0.0000000000	       -0.0489149420	        0.0000000000	        0.0000000000	        0.0000000000	        0.0000000000	        0.0000000000	        0.0000000000	
        0.6776723875	       16.4287081854	       91.1899197983	       14.6213972520	        0.4422639663	        0.0000000000	        0.0243593129	     -134.9055831988	      854.8926956116	       19.5538618137	        0.9970543803	        0.0000000000	       -0.0508948733	        0.0000000000	        0.0000000000	        0.0000000000	        0.0000000000	        0.0000000000	        0.0000000000	
        0.6899937037	        0.8689742820	       36.5771179627	        8.2449168255	        0.4416575863	        0.0000000000	        0.0243994888	     -142.6984426861	      887.7788115917	       20.3964439720	        1.0024167254	        0.0000000000	       -0.0520457272	        0.0000000000	        0.0000000000	        0.0000000000	        0.0000000000	        0.0000000000	        0.0000000000	
        0.7023150198	        0.2194813230	       -0.2189070508	       -0.0043896711	        0.0000000000	        0.0000000000	        0.0000000000	     -132.9130565648	      867.1760455607	       19.4319666390	        1.0062957915	        0.0000000000	       -0.0527156330	        0.0000000000	        0.0000000000	        0.0000000000	        0.0000000000	        0.0000000000	        0.0000000000	
        0.7146363359	        0.0016410619	       -0.0013054425	        0.0000966726	        0.0000000000	        0.0000000000	        0.0000000000	     -116.7315389092	      824.8942687558	       18.6291642622	        1.0099195720	        0.0000000000	       -0.0530659119	        0.0000000000	        0.0000000000	        0.0000000000	        0.0000000000	        0.0000000000	        0.0000000000	
        0.7269576521	        0.0031501877	       -0.0021413001	        0.0002266166	        0.0000000000	        0.0000000000	        0.0000000000	     -101.3913723287	      779.6487497729	       18.0011069914	        1.0138213349	        0.0000000000	       -0.0531529280	        0.0000000000	        0.0000000000	        0.0000000000	        0.0000000000	        0.0000000000	        0.0000000000	
        0.7392789682	        0.0381086813	       -0.0231333548	        0.0028879488	        0.0000000000	        0.0000000000	        0.0000000000	      -89.3239810059	      740.4347121521	       17.7369743211	        1.0182182569	        0.0000000000	       -0.0530746182	        0.0000000000	        0.0000000000	        0.0000000000	        0.0000000000	        0.0000000000	        0.0000000000	
        0.7516002844	       -0.2172097981	        0.1209171368	       -0.0170920581	        0.0000000000	        0.0000000000	        0.0000000000	      -79.6910814581	      711.3935102622	       18.0472838955	        1.0234505036	        0.0000000000	       -0.0527656353	        0.0000000000	        0.0000000000	        0.0000000000	        0.0000000000	        0.0000000000	        0.0000000000	
        0.7639216005	       -0.1563847181	        0.0820718519	       -0.0117929431	        0.0000000000	        0.0000000000	        0.0000000000	      -70.2197946015	      685.1633019883	       18.4746145884	        1.0287241290	        0.0000000000	       -0.0524157434	        0.0000000000	        0.0000000000	        0.0000000000	        0.0000000000	        0.0000000000	        0.0000000000	
        0.7762429166	       -0.0916747808	        0.0458142165	       -0.0067830941	        0.0000000000	        0.0000000000	        0.0000000000	      -60.9667602168	      660.0577123517	       19.2252073966	        1.0336487780	        0.0000000000	       -0.0521497942	        0.0000000000	        0.0000000000	        0.0000000000	        0.0000000000	        0.0000000000	        0.0000000000	
        0.7885642328	       -0.0632961288	        0.0303735472	       -0.0046423956	        0.0000000000	        0.0000000000	        0.0000000000	      -52.3765452308	      638.6100791529	       19.6034901400	        1.0384392139	        0.0000000000	       -0.0519668570	        0.0000000000	        0.0000000000	        0.0000000000	        0.0000000000	        0.0000000000	        0.0000000000	
        0.8008855489	       -0.0543954169	        0.0252266117	       -0.0039649570	        0.0000000000	        0.0000000000	        0.0000000000	      -44.8436811158	      621.1020720672	       20.0367761028	        1.0432301531	        0.0000000000	       -0.0518220358	        0.0000000000	        0.0000000000	        0.0000000000	        0.0000000000	        0.0000000000	        0.0000000000	
        0.8132068650	       -0.0574417647	        0.0258852787	       -0.0041233675	        0.0000000000	        0.0000000000	        0.0000000000	      -38.0895932422	      606.7421705827	       20.0515000431	        1.0480052361	        0.0000000000	       -0.0516979625	        0.0000000000	        0.0000000000	        0.0000000000	        0.0000000000	        0.0000000000	        0.0000000000	
        0.8255281812	       -0.0722133233	        0.0317359077	       -0.0050729619	        0.0000000000	        0.0000000000	        0.0000000000	      -31.6654011833	      596.6237562948	       20.0075575580	        1.0532674322	        0.0000000000	       -0.0515243634	        0.0000000000	        0.0000000000	        0.0000000000	        0.0000000000	        0.0000000000	        0.0000000000	
        0.8378494973	       -0.1055468885	        0.0453192552	       -0.0072231951	        0.0000000000	        0.0000000000	        0.0000000000	      -26.7666547270	      590.5308217176	       19.6606904364	        1.0591855667	        0.0000000000	       -0.0512521382	        0.0000000000	        0.0000000000	        0.0000000000	        0.0000000000	        0.0000000000	        0.0000000000	
        0.8501708134	       -0.1716981407	        0.0721451025	       -0.0113322055	        0.0000000000	        0.0000000000	        0.0000000000	      -23.4678287053	      587.5969306801	       19.2614804305	        1.0655033025	        0.0000000000	       -0.0508786621	        0.0000000000	        0.0000000000	        0.0000000000	        0.0000000000	        0.0000000000	        0.0000000000	
